<?xml version="1.0" encoding="UTF-8"?>
<svg version="1.1" viewBox="0 0 48.761 104.25" xmlns="http://www.w3.org/2000/svg">
 <g transform="translate(-364.19 -1286)">
  <path d="m390.24 1287.4c2.3822-2.486 7.0609-1.3542 8.4658 1.6893 2.1246 4.1469 3.3907 8.6801 4.3568 13.232 1.7876 8.1596 3.6786 16.318 4.6433 24.634-2.005-1.1766-4.1275-2.1983-6.4965-2.1596 1.8482 1.6426 4.1434 2.6286 6.1566 4.0427 2.2326 5.6565 4.0355 11.482 5.524 17.382 0.22815 6.2583-3.1173 11.939-4.8457 17.822-1.1219 4.3273-5.3075 7.4302-5.2475 12.09-0.20471 2.8377-0.20597 5.6988-0.26336 8.5649-8.1597 4.7605-18.279 7.4112-27.393 3.7663-1.7123-5.6808-0.47573-12.042-3.5955-17.278-4.3838-8.5282-6.2671-18.07-7.2987-27.522 0.0914-2.9767 1.2605-5.8339 2.3032-8.5784 2.4526-1.8966 5.5244-2.8145 7.9028-4.8095 1.1299-1.8596 1.4908-4.0857 2.7434-5.8547 2.1626-1.6118 4.9728-1.783 7.518-2.3473 1.6556-3.1701 4.5186-5.2186 7.8708-6.2859-0.44861-7.1959-1.037-14.435-2.807-21.437-0.46881-2.2821-1.1045-4.9513 0.46254-6.9513z" fill="none" stroke="#171717" stroke-miterlimit="10" stroke-width=".125"/>
  <path d="m390.24 1287.4c2.3822-2.486 7.0609-1.3542 8.4658 1.6893 2.1246 4.1469 3.3907 8.6801 4.3568 13.232 1.7876 8.1596 3.6786 16.318 4.6433 24.634-2.005-1.1766-4.1275-2.1983-6.4965-2.1596 1.8482 1.6426 4.1434 2.6286 6.1566 4.0427 2.2326 5.6565 4.0355 11.482 5.524 17.382 0.22815 6.2583-3.1173 11.939-4.8457 17.822-1.1219 4.3273-5.3075 7.4302-5.2475 12.09-0.20471 2.8377-0.20597 5.6988-0.26336 8.5649-8.1597 4.7605-18.279 7.4112-27.393 3.7663-1.7123-5.6808-0.47573-12.042-3.5955-17.278-4.3838-8.5282-6.2671-18.07-7.2987-27.522 0.0914-2.9767 1.2605-5.8339 2.3032-8.5784 2.4526-1.8966 5.5244-2.8145 7.9028-4.8095 1.1299-1.8596 1.4908-4.0857 2.7434-5.8547 2.1626-1.6118 4.9728-1.783 7.518-2.3473 1.6556-3.1701 4.5186-5.2186 7.8708-6.2859-0.44861-7.1959-1.037-14.435-2.807-21.437-0.46881-2.2821-1.1045-4.9513 0.46254-6.9513z" fill="#171717"/>
  <path d="m391.16 1287.4c6.5616-0.8664 8.5504 7.0797 9.0995 12.118-2.5286 0.4397-5.0461 0.9444-7.5534 1.4995-1.0938-4.4427-2.7266-9.0245-1.5461-13.617z" fill="none" stroke="#fff" stroke-miterlimit="10" stroke-width=".125"/>
  <path d="m391.16 1287.4c6.5616-0.8664 8.5504 7.0797 9.0995 12.118-2.5286 0.4397-5.0461 0.9444-7.5534 1.4995-1.0938-4.4427-2.7266-9.0245-1.5461-13.617z" fill="#fff"/>
  <path d="m393.69 1302.5c2.0799-1.0083 4.3578-1.443 6.6247-1.7641 1.0734 2.8768 1.9228 5.8403 2.6568 8.8366-3.0214 0.3235-6.0083 0.8842-8.9512 1.6414-0.0658-2.8649-1.6591-6.061-0.33018-8.7139z" fill="none" stroke="#fff" stroke-miterlimit="10" stroke-width=".125"/>
  <path d="m393.69 1302.5c2.0799-1.0083 4.3578-1.443 6.6247-1.7641 1.0734 2.8768 1.9228 5.8403 2.6568 8.8366-3.0214 0.3235-6.0083 0.8842-8.9512 1.6414-0.0658-2.8649-1.6591-6.061-0.33018-8.7139z" fill="#fff"/>
  <path d="m393.75 1313.5c3.0173-0.6588 6.8635-2.5627 9.618-0.7017 0.81063 3.2382 1.1661 6.5793 1.6967 9.8873-2.3159-0.4395-5.3717 0.1847-6.9082-2.035-1.6954-2.2435-3.0948-4.6851-4.4065-7.1506z" fill="none" stroke="#fff" stroke-miterlimit="10" stroke-width=".125"/>
  <path d="m393.75 1313.5c3.0173-0.6588 6.8635-2.5627 9.618-0.7017 0.81063 3.2382 1.1661 6.5793 1.6967 9.8873-2.3159-0.4395-5.3717 0.1847-6.9082-2.035-1.6954-2.2435-3.0948-4.6851-4.4065-7.1506z" fill="#fff"/>
  <path d="m386.81 1322.5c1.1412-4.0417 6.1699-6.0486 9.396-2.9474-2.1982 2.3937-5.3786 4.5472-5.4984 8.1462-0.67356 3.7624 2.6673 7.1641 1.0998 10.908 1.3463 0.1266 2.692 0.2859 4.0373 0.4779 0.66248 0.9039 1.332 1.8183 2.0086 2.7432-2.204 0.063-4.3702 0.4579-6.4418 1.2204-0.7073-2.566-0.21464-5.7836-1.6014-7.9141-1.8545 0.9699-0.28073 4.2301-0.62487 6.0501-1.9381 0.5739-3.8242 1.3076-5.6696 2.1489-2.3013-4.8614-5.4994-9.3328-6.7328-14.639 2.1732-3.2012 5.5271-6.1147 9.4888-3.6976 1.4917 2.8217-0.37586 7.9303 3.4039 8.9623-0.40698-3.9489-1.1944-7.8538-2.8656-11.458z" fill="none" stroke="#fff" stroke-miterlimit="10" stroke-width=".125"/>
  <path d="m386.81 1322.5c1.1412-4.0417 6.1699-6.0486 9.396-2.9474-2.1982 2.3937-5.3786 4.5472-5.4984 8.1462-0.67356 3.7624 2.6673 7.1641 1.0998 10.908 1.3463 0.1266 2.692 0.2859 4.0373 0.4779 0.66248 0.9039 1.332 1.8183 2.0086 2.7432-2.204 0.063-4.3702 0.4579-6.4418 1.2204-0.7073-2.566-0.21464-5.7836-1.6014-7.9141-1.8545 0.9699-0.28073 4.2301-0.62487 6.0501-1.9381 0.5739-3.8242 1.3076-5.6696 2.1489-2.3013-4.8614-5.4994-9.3328-6.7328-14.639 2.1732-3.2012 5.5271-6.1147 9.4888-3.6976 1.4917 2.8217-0.37586 7.9303 3.4039 8.9623-0.40698-3.9489-1.1944-7.8538-2.8656-11.458z" fill="#fff"/>
  <path d="m396.69 1322.4c2.1268 1.3437 3.8486 6.0037-0.01 5.9907-2.4256-1.6754-1.2224-3.9976 0.01-5.9907z" fill="none" stroke="#fff" stroke-miterlimit="10" stroke-width=".125"/>
  <path d="m396.69 1322.4c2.1268 1.3437 3.8486 6.0037-0.01 5.9907-2.4256-1.6754-1.2224-3.9976 0.01-5.9907z" fill="#fff"/>
  <path d="m392.74 1325.1c1.0544 2.2389 2.365 4.643 5.0236 5.2282 1.6711-0.2861 2.792-1.684 4.1111-2.596 1.963 1.6748 3.8628 3.4248 5.783 5.1679-1.4577 1.2249-2.9352 2.4333-4.3958 3.6735 0.63001 1.0303 1.2487 2.0784 1.8555 3.1544 1.2091-0.6991 2.4124-1.3957 3.6201-2.0731 0.84062 3.6085 2.3347 7.1338 2.4202 10.892-0.26409 3.2954-2.0276 6.2225-2.8814 9.3906-1.2588 3.5321-1.877 7.6831-4.8715 10.264-2.7613 1.5778-6.074 0.8134-9.0276 0.3253-2.0106-3.5895-4.7521-6.9879-5.4109-11.138 0.18979-2.6457 1.8762-4.8577 2.9345-7.1958 2.2274-0.5207 4.4462-1.0702 6.6628-1.6232 1.6475 3.1684 4.5506 5.3047 8.233 5.2654-5.051-2.4551-5.0489-8.1881-6.2708-12.937-2.0979-2.4755-4.7816-4.4427-6.4948-7.2268-1.8602-2.4735-0.99479-5.7277-1.2912-8.5701z" fill="none" stroke="#fff" stroke-miterlimit="10" stroke-width=".125"/>
  <path d="m392.74 1325.1c1.0544 2.2389 2.365 4.643 5.0236 5.2282 1.6711-0.2861 2.792-1.684 4.1111-2.596 1.963 1.6748 3.8628 3.4248 5.783 5.1679-1.4577 1.2249-2.9352 2.4333-4.3958 3.6735 0.63001 1.0303 1.2487 2.0784 1.8555 3.1544 1.2091-0.6991 2.4124-1.3957 3.6201-2.0731 0.84062 3.6085 2.3347 7.1338 2.4202 10.892-0.26409 3.2954-2.0276 6.2225-2.8814 9.3906-1.2588 3.5321-1.877 7.6831-4.8715 10.264-2.7613 1.5778-6.074 0.8134-9.0276 0.3253-2.0106-3.5895-4.7521-6.9879-5.4109-11.138 0.18979-2.6457 1.8762-4.8577 2.9345-7.1958 2.2274-0.5207 4.4462-1.0702 6.6628-1.6232 1.6475 3.1684 4.5506 5.3047 8.233 5.2654-5.051-2.4551-5.0489-8.1881-6.2708-12.937-2.0979-2.4755-4.7816-4.4427-6.4948-7.2268-1.8602-2.4735-0.99479-5.7277-1.2912-8.5701z" fill="#fff"/>
  <path d="m367.81 1336.9c3.0125-0.6048 5.2431-2.8768 7.6916-4.541 2.6987 3.1313 4.2358 7.0116 5.9666 10.723-1.0692 0.9632-2.1191 1.9593-3.1498 2.9884 1.2202-0.03 3.6604-0.089 4.8806-0.1181-1.1714 1.8182-2.4622 3.5748-3.7829 5.3072-3.4383-3.62-5.2622-9.5471-10.166-11.29-0.52555 0.3139-1.5766 0.9416-2.1022 1.2555 1.9227 1.1587 5.2877 2.1312 3.2877 4.8984 0.72912 0.096 2.1874 0.2887 2.9165 0.385 1.9692 2.6297 3.5876 6.2144 7.0067 7.1705 2.5049-0.3175 4.9275-1.0842 7.4258-1.4428-0.37275 2.9009-1.0774 5.7633-1.3476 8.6964 2.0867 3.3265 4.4736 6.4978 6.7292 9.7393-1.2969-0.174-2.5833-0.3814-3.8705-0.569-3.2788 1.9784-6.6486 4.0948-10.46 4.8373-4.0087 0.2862-5.501-3.9754-6.6233-7.0094-3.5064-9.8317-7.447-20.6-4.4024-31.031z" fill="none" stroke="#fff" stroke-miterlimit="10" stroke-width=".125"/>
  <path d="m367.81 1336.9c3.0125-0.6048 5.2431-2.8768 7.6916-4.541 2.6987 3.1313 4.2358 7.0116 5.9666 10.723-1.0692 0.9632-2.1191 1.9593-3.1498 2.9884 1.2202-0.03 3.6604-0.089 4.8806-0.1181-1.1714 1.8182-2.4622 3.5748-3.7829 5.3072-3.4383-3.62-5.2622-9.5471-10.166-11.29-0.52555 0.3139-1.5766 0.9416-2.1022 1.2555 1.9227 1.1587 5.2877 2.1312 3.2877 4.8984 0.72912 0.096 2.1874 0.2887 2.9165 0.385 1.9692 2.6297 3.5876 6.2144 7.0067 7.1705 2.5049-0.3175 4.9275-1.0842 7.4258-1.4428-0.37275 2.9009-1.0774 5.7633-1.3476 8.6964 2.0867 3.3265 4.4736 6.4978 6.7292 9.7393-1.2969-0.174-2.5833-0.3814-3.8705-0.569-3.2788 1.9784-6.6486 4.0948-10.46 4.8373-4.0087 0.2862-5.501-3.9754-6.6233-7.0094-3.5064-9.8317-7.447-20.6-4.4024-31.031z" fill="#fff"/>
  <path d="m383.6 1343.6c2.1749-0.4297 4.3171-0.9987 6.4525-1.5753-0.55993 3.1073-2.9476 5.318-4.5918 7.8891-0.97061-1.9952-1.4761-4.1644-1.8607-6.3138z" fill="none" stroke="#fff" stroke-miterlimit="10" stroke-width=".125"/>
  <path d="m383.6 1343.6c2.1749-0.4297 4.3171-0.9987 6.4525-1.5753-0.55993 3.1073-2.9476 5.318-4.5918 7.8891-0.97061-1.9952-1.4761-4.1644-1.8607-6.3138z" fill="#fff"/>
  <path d="m394.36 1344c2.0694-1.1685 3.4468 2.2572 0.92301 2.5258-2.1044 0.976-3.4867-2.2155-0.92301-2.5258z" fill="none" stroke="#fff" stroke-miterlimit="10" stroke-width=".125"/>
  <path d="m394.36 1344c2.0694-1.1685 3.4468 2.2572 0.92301 2.5258-2.1044 0.976-3.4867-2.2155-0.92301-2.5258z" fill="#fff"/>
  <path d="m389.16 1347.6c1.4827 0.8324 1.3633 1.6933-0.35821 2.5828-1.5138-0.8754-1.3944-1.7364 0.35821-2.5828z" fill="none" stroke="#fff" stroke-miterlimit="10" stroke-width=".125"/>
  <path d="m389.16 1347.6c1.4827 0.8324 1.3633 1.6933-0.35821 2.5828-1.5138-0.8754-1.3944-1.7364 0.35821-2.5828z" fill="#fff"/>
  <path d="m381.77 1350.1c3.8019-1.9015 0.15791 4.1057 0 0z" fill="none" stroke="#c7c7c7" stroke-miterlimit="10" stroke-width=".125"/>
  <path d="m381.77 1350.1c3.8019-1.9015 0.15791 4.1057 0 0z" fill="#c7c7c7"/>
  <path d="m391.84 1372c2.4696 0.3404 4.9639 0.4847 7.4591 0.5852 0.0369 4.1075 0.0346 8.2231-0.0391 12.346-2.1082 0.78-4.2585 1.4478-6.4366 2.0229-0.23038-4.9981-0.31527-10.002-0.98338-14.954z" fill="none" stroke="#fff" stroke-miterlimit="10" stroke-width=".125"/>
  <path d="m391.84 1372c2.4696 0.3404 4.9639 0.4847 7.4591 0.5852 0.0369 4.1075 0.0346 8.2231-0.0391 12.346-2.1082 0.78-4.2585 1.4478-6.4366 2.0229-0.23038-4.9981-0.31527-10.002-0.98338-14.954z" fill="#fff"/>
  <path d="m378.74 1377.7c2.5558-0.2029 5.0993-0.5413 7.6084-1.0676 0.82684 3.8349 1.6542 7.7416 1.1156 11.699-2.6649-0.1654-5.3104-0.5513-7.8899-1.2271-0.4171-3.1306-0.78516-6.2629-0.83414-9.404z" fill="none" stroke="#fff" stroke-miterlimit="10" stroke-width=".125"/>
  <path d="m378.74 1377.7c2.5558-0.2029 5.0993-0.5413 7.6084-1.0676 0.82684 3.8349 1.6542 7.7416 1.1156 11.699-2.6649-0.1654-5.3104-0.5513-7.8899-1.2271-0.4171-3.1306-0.78516-6.2629-0.83414-9.404z" fill="#fff"/>
 </g>
</svg>
