<svg xmlns="http://www.w3.org/2000/svg" version="1.1" xmlns:xlink="http://www.w3.org/1999/xlink" xmlns:svgjs="http://svgjs.dev/svgjs" width="1440" height="560" preserveAspectRatio="none" viewBox="0 0 1440 560"><g mask="url(&quot;#SvgjsMask1005&quot;)" fill="none"><rect width="1440" height="560" x="0" y="0" fill="#0e2a47"></rect><path d="M1050.18 490.76L1064.79 490.76L1064.79 498.5L1050.18 498.5z" stroke="#e73635"></path><path d="M808.59 39.85L824.41 39.85L824.41 55.67L808.59 55.67z" stroke="#037b0b"></path><path d="M280.61 278.71a23.7 23.7 0 1 0-0.4 47.4z" stroke="#037b0b"></path><path d="M704.26 505.46 a20.02 20.02 0 1 0 40.04 0 a20.02 20.02 0 1 0 -40.04 0z" fill="#e73635"></path><path d="M2.37 162.6L57.7 162.6L57.7 217.93L2.37 217.93z" fill="#d3b714"></path><path d="M313.58 465.96L319.46 465.96L319.46 516.61L313.58 516.61z" fill="#037b0b"></path><path d="M1304.7 68.81 a11.15 11.15 0 1 0 22.3 0 a11.15 11.15 0 1 0 -22.3 0z" fill="#037b0b"></path><path d="M1169.01 44.07 a21.82 21.82 0 1 0 43.64 0 a21.82 21.82 0 1 0 -43.64 0z" stroke="#037b0b"></path><path d="M884.08 141.9a54.34 54.34 0 1 0-71.2-82.11z" stroke="#037b0b"></path><path d="M1387.53 406.84L1434.01 406.84L1434.01 421.28L1387.53 421.28z" stroke="#e73635"></path><path d="M120.7 493.81a38.52 38.52 0 1 0 66-39.74z" stroke="#d3b714"></path><path d="M853.04 192.74a28.79 28.79 0 1 0-54.2-19.44z" stroke="#e73635"></path><path d="M1065.67 317.74L1085.83 317.74L1085.83 333.91L1065.67 333.91z" stroke="#037b0b"></path><path d="M1344.46 552.36a13.87 13.87 0 1 0 26.44 8.38z" fill="#d3b714"></path><path d="M806.61 90.68 a36.41 36.41 0 1 0 72.82 0 a36.41 36.41 0 1 0 -72.82 0z" stroke="#e73635"></path><path d="M423.78 452.84 a44.76 44.76 0 1 0 89.52 0 a44.76 44.76 0 1 0 -89.52 0z" fill="#037b0b"></path><path d="M467.82 301.53L487.06 301.53L487.06 330.48L467.82 330.48z" stroke="#d3b714"></path><path d="M233.58 276.12 a33.26 33.26 0 1 0 66.52 0 a33.26 33.26 0 1 0 -66.52 0z" stroke="#037b0b"></path><path d="M726.23 542.11 a34.84 34.84 0 1 0 69.68 0 a34.84 34.84 0 1 0 -69.68 0z" fill="#e73635"></path><path d="M1185.9 548.75 a42.38 42.38 0 1 0 84.76 0 a42.38 42.38 0 1 0 -84.76 0z" fill="#037b0b"></path><path d="M685.66 250.53L713.24 250.53L713.24 260.14L685.66 260.14z" fill="#d3b714"></path><path d="M1082.09 446.17a30.58 30.58 0 1 0 52.62-31.16z" fill="#037b0b"></path><path d="M1296.51 141.93L1304.5 141.93L1304.5 149.92L1296.51 149.92z" fill="#037b0b"></path><path d="M149.7 200.28 a32.01 32.01 0 1 0 64.02 0 a32.01 32.01 0 1 0 -64.02 0z" stroke="#d3b714"></path><path d="M560.91 264.84L598.59 264.84L598.59 302.52L560.91 302.52z" fill="#037b0b"></path><path d="M1035 103.88a41.45 41.45 0 1 0 80.94-17.96z" stroke="#d3b714"></path><path d="M1361.21 450.76 a36.33 36.33 0 1 0 72.66 0 a36.33 36.33 0 1 0 -72.66 0z" stroke="#d3b714"></path><path d="M427.25 308.71a11.99 11.99 0 1 0 23.44 5.08z" fill="#e73635"></path><path d="M407.08 42.24 a6.41 6.41 0 1 0 12.82 0 a6.41 6.41 0 1 0 -12.82 0z" stroke="#e73635"></path><path d="M824.97 169.84L843.26 169.84L843.26 206.59L824.97 206.59z" stroke="#037b0b"></path><path d="M978.41 215.21a40.2 40.2 0 1 0-8.19-79.98z" fill="#e73635"></path><path d="M712.62 323.4 a48.89 48.89 0 1 0 97.78 0 a48.89 48.89 0 1 0 -97.78 0z" fill="#037b0b"></path><path d="M474.58 200.92L515.64 200.92L515.64 241.98L474.58 241.98z" fill="#e73635"></path></g><defs><mask id="SvgjsMask1005"><rect width="1440" height="560" fill="#ffffff"></rect></mask></defs></svg>