<svg xmlns="http://www.w3.org/2000/svg" version="1.1" xmlns:xlink="http://www.w3.org/1999/xlink" xmlns:svgjs="http://svgjs.dev/svgjs" width="1440" height="560" preserveAspectRatio="none" viewBox="0 0 1440 560"><g mask="url(&quot;#SvgjsMask1009&quot;)" fill="none"><rect width="1440" height="560" x="0" y="0" fill="url(&quot;#SvgjsLinearGradient1010&quot;)"></rect><path d="M1340.56 487.57L1340.56 489.44L1356.17 489.44L1356.17 487.57zM1352.87 488.51 a3.3 3.3 0 1 0 6.6 0 a3.3 3.3 0 1 0 -6.6 0zM1338.2 501.26L1337.49 502.98L1349.93 508.14L1350.64 506.41zM1346.98 507.27 a3.3 3.3 0 1 0 6.6 0 a3.3 3.3 0 1 0 -6.6 0zM1330.79 513.01L1329.47 514.33L1332.8 517.65L1334.12 516.33zM1330.16 516.99 a3.3 3.3 0 1 0 6.6 0 a3.3 3.3 0 1 0 -6.6 0zM1319.45 521.03L1317.73 521.74L1321.52 530.89L1323.24 530.17zM1319.08 530.53 a3.3 3.3 0 1 0 6.6 0 a3.3 3.3 0 1 0 -6.6 0zM1305.9 524.09L1304.04 524.09L1304.04 533.51L1305.9 533.51zM1301.67 533.51 a3.3 3.3 0 1 0 6.6 0 a3.3 3.3 0 1 0 -6.6 0zM1292.21 521.74L1290.49 521.03L1284.57 535.34L1286.29 536.05zM1282.13 535.69 a3.3 3.3 0 1 0 6.6 0 a3.3 3.3 0 1 0 -6.6 0zM1280.47 514.33L1279.15 513.01L1273.54 518.62L1274.86 519.93zM1270.9 519.28 a3.3 3.3 0 1 0 6.6 0 a3.3 3.3 0 1 0 -6.6 0zM1272.45 502.98L1271.74 501.26L1257.02 507.36L1257.73 509.08zM1254.08 508.22 a3.3 3.3 0 1 0 6.6 0 a3.3 3.3 0 1 0 -6.6 0zM1269.39 489.44L1269.39 487.57L1254.74 487.57L1254.74 489.44zM1251.44 488.51 a3.3 3.3 0 1 0 6.6 0 a3.3 3.3 0 1 0 -6.6 0zM1271.74 475.75L1272.45 474.03L1260.36 469.02L1259.65 470.74zM1256.7 469.88 a3.3 3.3 0 1 0 6.6 0 a3.3 3.3 0 1 0 -6.6 0zM1279.15 464L1280.47 462.69L1271.81 454.02L1270.49 455.34zM1267.85 454.68 a3.3 3.3 0 1 0 6.6 0 a3.3 3.3 0 1 0 -6.6 0zM1290.49 455.99L1292.21 455.27L1288.54 446.4L1286.82 447.11zM1284.38 446.75 a3.3 3.3 0 1 0 6.6 0 a3.3 3.3 0 1 0 -6.6 0zM1304.04 452.92L1305.9 452.92L1305.9 437.04L1304.04 437.04zM1301.67 437.04 a3.3 3.3 0 1 0 6.6 0 a3.3 3.3 0 1 0 -6.6 0zM1317.73 455.27L1319.45 455.99L1324.57 443.63L1322.85 442.91zM1320.41 443.27 a3.3 3.3 0 1 0 6.6 0 a3.3 3.3 0 1 0 -6.6 0zM1329.47 462.69L1330.79 464L1341.58 453.21L1340.27 451.89zM1337.62 452.55 a3.3 3.3 0 1 0 6.6 0 a3.3 3.3 0 1 0 -6.6 0zM1337.49 474.03L1338.2 475.75L1354.17 469.14L1353.46 467.42zM1350.51 468.28 a3.3 3.3 0 1 0 6.6 0 a3.3 3.3 0 1 0 -6.6 0zM1269.37 488.51 a35.6 35.6 0 1 0 71.2 0 a35.6 35.6 0 1 0 -71.2 0z" fill="#488fdb"></path><path d="M1336.96 472.9 A34.5968 34.5968 0 0 1 1302.57 524.02M1302.57 524.02 A71.1936 71.1936 0 0 0 1336.96 472.9" fill="#2672c3" fill-rule="nonzero"></path><path d="M1302.83 483.08 a7.12 7.12 0 1 0 14.24 0 a7.12 7.12 0 1 0 -14.24 0zM1320.95 473.12 a1.42 1.42 0 1 0 2.84 0 a1.42 1.42 0 1 0 -2.84 0zM1290.16 500.34 a7.12 7.12 0 1 0 14.24 0 a7.12 7.12 0 1 0 -14.24 0zM1328.2 494.63 a5.7 5.7 0 1 0 11.4 0 a5.7 5.7 0 1 0 -11.4 0zM1276.27 484.04 a7.12 7.12 0 1 0 14.24 0 a7.12 7.12 0 1 0 -14.24 0zM1298.54 460.36 a7.12 7.12 0 1 0 14.24 0 a7.12 7.12 0 1 0 -14.24 0zM1297.97 517.9 a3.56 3.56 0 1 0 7.12 0 a3.56 3.56 0 1 0 -7.12 0zM1334.2 479.04 a2.49 2.49 0 1 0 4.98 0 a2.49 2.49 0 1 0 -4.98 0zM1311.4 503.06 a4.27 4.27 0 1 0 8.54 0 a4.27 4.27 0 1 0 -8.54 0zM1326.52 464.51 a1.78 1.78 0 1 0 3.56 0 a1.78 1.78 0 1 0 -3.56 0z" fill="#2672c3" fill-rule="nonzero"></path><path d="M696.95 336.81L696.95 340.53L722.28 340.53L722.28 336.81zM715.68 338.67 a6.6 6.6 0 1 0 13.2 0 a6.6 6.6 0 1 0 -13.2 0zM692.25 364.18L690.82 367.63L709.01 375.16L710.44 371.72zM703.13 373.44 a6.6 6.6 0 1 0 13.2 0 a6.6 6.6 0 1 0 -13.2 0zM677.43 387.68L674.79 390.31L689.14 404.67L691.78 402.03zM683.86 403.35 a6.6 6.6 0 1 0 13.2 0 a6.6 6.6 0 1 0 -13.2 0zM654.74 403.71L651.3 405.13L659.51 424.95L662.95 423.53zM654.63 424.24 a6.6 6.6 0 1 0 13.2 0 a6.6 6.6 0 1 0 -13.2 0zM627.65 409.84L623.92 409.84L623.92 418.87L627.65 418.87zM619.18 418.87 a6.6 6.6 0 1 0 13.2 0 a6.6 6.6 0 1 0 -13.2 0zM600.27 405.13L596.83 403.71L591.83 415.77L595.28 417.19zM586.95 416.48 a6.6 6.6 0 1 0 13.2 0 a6.6 6.6 0 1 0 -13.2 0zM576.78 390.31L574.14 387.68L552.47 409.35L555.1 411.98zM547.19 410.67 a6.6 6.6 0 1 0 13.2 0 a6.6 6.6 0 1 0 -13.2 0zM560.74 367.63L559.32 364.18L530.72 376.03L532.15 379.47zM524.84 377.75 a6.6 6.6 0 1 0 13.2 0 a6.6 6.6 0 1 0 -13.2 0zM554.61 340.53L554.61 336.81L545.31 336.81L545.31 340.53zM538.71 338.67 a6.6 6.6 0 1 0 13.2 0 a6.6 6.6 0 1 0 -13.2 0zM559.32 313.16L560.74 309.71L532.31 297.93L530.88 301.38zM524.99 299.66 a6.6 6.6 0 1 0 13.2 0 a6.6 6.6 0 1 0 -13.2 0zM574.14 289.66L576.78 287.03L564.89 275.14L562.25 277.78zM556.97 276.46 a6.6 6.6 0 1 0 13.2 0 a6.6 6.6 0 1 0 -13.2 0zM596.83 273.63L600.27 272.21L586.97 240.1L583.53 241.53zM578.65 240.81 a6.6 6.6 0 1 0 13.2 0 a6.6 6.6 0 1 0 -13.2 0zM623.92 267.5L627.65 267.5L627.65 240.52L623.92 240.52zM619.18 240.52 a6.6 6.6 0 1 0 13.2 0 a6.6 6.6 0 1 0 -13.2 0zM651.3 272.21L654.74 273.63L664.77 249.41L661.33 247.98zM656.45 248.69 a6.6 6.6 0 1 0 13.2 0 a6.6 6.6 0 1 0 -13.2 0zM674.79 287.03L677.43 289.66L701.71 265.37L699.08 262.74zM693.8 264.06 a6.6 6.6 0 1 0 13.2 0 a6.6 6.6 0 1 0 -13.2 0zM690.82 309.71L692.25 313.16L704.42 308.11L703 304.67zM697.11 306.39 a6.6 6.6 0 1 0 13.2 0 a6.6 6.6 0 1 0 -13.2 0zM554.59 338.67 a71.19 71.19 0 1 0 142.38 0 a71.19 71.19 0 1 0 -142.38 0z" fill="#488fdb"></path><path d="M672.26 392.6 A70.1936 70.1936 0 0 1 555.87 352.11M555.87 352.11 A142.3872 142.3872 0 0 0 672.26 392.6" fill="#2672c3" fill-rule="nonzero"></path><path d="M571.49 348.35 a14.24 14.24 0 1 0 28.48 0 a14.24 14.24 0 1 0 -28.48 0zM602.44 313.9 a14.24 14.24 0 1 0 28.48 0 a14.24 14.24 0 1 0 -28.48 0zM580.26 380.42 a3.56 3.56 0 1 0 7.12 0 a3.56 3.56 0 1 0 -7.12 0zM645.6 374.94 a14.24 14.24 0 1 0 28.48 0 a14.24 14.24 0 1 0 -28.48 0zM663.7 293.82 a7.12 7.12 0 1 0 14.24 0 a7.12 7.12 0 1 0 -14.24 0zM612.05 361.28 a9.97 9.97 0 1 0 19.94 0 a9.97 9.97 0 1 0 -19.94 0zM558.88 316.59 a4.27 4.27 0 1 0 8.54 0 a4.27 4.27 0 1 0 -8.54 0zM689.57 339.51 a3.56 3.56 0 1 0 7.12 0 a3.56 3.56 0 1 0 -7.12 0zM658.52 340.63 a5.7 5.7 0 1 0 11.4 0 a5.7 5.7 0 1 0 -11.4 0zM630.59 277.48 a8.54 8.54 0 1 0 17.08 0 a8.54 8.54 0 1 0 -17.08 0z" fill="#2672c3" fill-rule="nonzero"></path><path d="M1300.6 130.98L1300.6 134.7L1325.18 134.7L1325.18 130.98zM1318.58 132.84 a6.6 6.6 0 1 0 13.2 0 a6.6 6.6 0 1 0 -13.2 0zM1295.89 158.35L1294.47 161.8L1324.23 174.13L1325.66 170.68zM1318.35 172.41 a6.6 6.6 0 1 0 13.2 0 a6.6 6.6 0 1 0 -13.2 0zM1281.07 181.85L1278.43 184.48L1297.67 203.72L1300.3 201.08zM1292.38 202.4 a6.6 6.6 0 1 0 13.2 0 a6.6 6.6 0 1 0 -13.2 0zM1258.38 197.88L1254.94 199.31L1267.47 229.56L1270.92 228.14zM1262.59 228.85 a6.6 6.6 0 1 0 13.2 0 a6.6 6.6 0 1 0 -13.2 0zM1231.29 204.01L1227.56 204.01L1227.56 216.19L1231.29 216.19zM1222.83 216.19 a6.6 6.6 0 1 0 13.2 0 a6.6 6.6 0 1 0 -13.2 0zM1203.91 199.31L1200.47 197.88L1192.67 216.72L1196.11 218.14zM1187.79 217.43 a6.6 6.6 0 1 0 13.2 0 a6.6 6.6 0 1 0 -13.2 0zM1180.42 184.48L1177.78 181.85L1155.48 204.16L1158.11 206.79zM1150.19 205.47 a6.6 6.6 0 1 0 13.2 0 a6.6 6.6 0 1 0 -13.2 0zM1164.39 161.8L1162.96 158.35L1151.43 163.13L1152.86 166.57zM1145.55 164.85 a6.6 6.6 0 1 0 13.2 0 a6.6 6.6 0 1 0 -13.2 0zM1158.26 134.7L1158.26 130.98L1123.24 130.98L1123.24 134.7zM1116.64 132.84 a6.6 6.6 0 1 0 13.2 0 a6.6 6.6 0 1 0 -13.2 0zM1162.96 107.33L1164.39 103.88L1153.85 99.52L1152.42 102.96zM1146.53 101.24 a6.6 6.6 0 1 0 13.2 0 a6.6 6.6 0 1 0 -13.2 0zM1177.78 83.83L1180.42 81.2L1162.98 63.75L1160.34 66.39zM1155.06 65.07 a6.6 6.6 0 1 0 13.2 0 a6.6 6.6 0 1 0 -13.2 0zM1200.47 67.8L1203.91 66.38L1196.04 47.36L1192.59 48.79zM1187.72 48.08 a6.6 6.6 0 1 0 13.2 0 a6.6 6.6 0 1 0 -13.2 0zM1227.56 61.67L1231.29 61.67L1231.29 51.2L1227.56 51.2zM1222.83 51.2 a6.6 6.6 0 1 0 13.2 0 a6.6 6.6 0 1 0 -13.2 0zM1254.94 66.38L1258.38 67.8L1263.78 54.78L1260.33 53.36zM1255.45 54.07 a6.6 6.6 0 1 0 13.2 0 a6.6 6.6 0 1 0 -13.2 0zM1278.43 81.2L1281.07 83.83L1301.47 63.43L1298.83 60.8zM1293.55 62.12 a6.6 6.6 0 1 0 13.2 0 a6.6 6.6 0 1 0 -13.2 0zM1294.47 103.88L1295.89 107.33L1312.87 100.29L1311.45 96.85zM1305.56 98.57 a6.6 6.6 0 1 0 13.2 0 a6.6 6.6 0 1 0 -13.2 0zM1158.24 132.84 a71.19 71.19 0 1 0 142.38 0 a71.19 71.19 0 1 0 -142.38 0z" fill="#488fdb"></path><path d="M1191.41 72.65 A70.1936 70.1936 0 0 1 1300.56 129.86M1300.56 129.86 A142.3872 142.3872 0 0 0 1191.41 72.65" fill="#2672c3" fill-rule="nonzero"></path><path d="M1235.44 104.85 a14.24 14.24 0 1 0 28.48 0 a14.24 14.24 0 1 0 -28.48 0zM1213.56 113.24 a4.27 4.27 0 1 0 8.54 0 a4.27 4.27 0 1 0 -8.54 0zM1217.58 198.87 a4.27 4.27 0 1 0 8.54 0 a4.27 4.27 0 1 0 -8.54 0zM1248.82 177.78 a14.24 14.24 0 1 0 28.48 0 a14.24 14.24 0 1 0 -28.48 0zM1189.35 88.04 a11.39 11.39 0 1 0 22.78 0 a11.39 11.39 0 1 0 -22.78 0zM1273.83 144.18 a11.39 11.39 0 1 0 22.78 0 a11.39 11.39 0 1 0 -22.78 0zM1180.03 144.75 a14.24 14.24 0 1 0 28.48 0 a14.24 14.24 0 1 0 -28.48 0zM1222.83 74.08 a2.85 2.85 0 1 0 5.7 0 a2.85 2.85 0 1 0 -5.7 0zM1213.97 169.31 a8.54 8.54 0 1 0 17.08 0 a8.54 8.54 0 1 0 -17.08 0zM1242.64 144.41 a7.12 7.12 0 1 0 14.24 0 a7.12 7.12 0 1 0 -14.24 0z" fill="#2672c3" fill-rule="nonzero"></path><path d="M575.85 94.17L575.85 96.03L591.34 96.03L591.34 94.17zM588.04 95.1 a3.3 3.3 0 1 0 6.6 0 a3.3 3.3 0 1 0 -6.6 0zM573.5 107.85L572.78 109.58L588.76 116.19L589.47 114.47zM585.81 115.33 a3.3 3.3 0 1 0 6.6 0 a3.3 3.3 0 1 0 -6.6 0zM566.08 119.6L564.77 120.92L575.71 131.86L577.02 130.54zM573.06 131.2 a3.3 3.3 0 1 0 6.6 0 a3.3 3.3 0 1 0 -6.6 0zM554.74 127.62L553.02 128.33L554.98 133.06L556.7 132.35zM552.54 132.7 a3.3 3.3 0 1 0 6.6 0 a3.3 3.3 0 1 0 -6.6 0zM541.2 130.68L539.33 130.68L539.33 142.02L541.2 142.02zM536.96 142.02 a3.3 3.3 0 1 0 6.6 0 a3.3 3.3 0 1 0 -6.6 0zM527.51 128.33L525.78 127.62L521.2 138.68L522.93 139.39zM518.77 139.03 a3.3 3.3 0 1 0 6.6 0 a3.3 3.3 0 1 0 -6.6 0zM515.76 120.92L514.44 119.6L505.59 128.45L506.91 129.77zM502.95 129.11 a3.3 3.3 0 1 0 6.6 0 a3.3 3.3 0 1 0 -6.6 0zM507.74 109.58L507.03 107.85L502.32 109.81L503.03 111.53zM499.38 110.67 a3.3 3.3 0 1 0 6.6 0 a3.3 3.3 0 1 0 -6.6 0zM504.68 96.03L504.68 94.17L497.93 94.17L497.93 96.03zM494.63 95.1 a3.3 3.3 0 1 0 6.6 0 a3.3 3.3 0 1 0 -6.6 0zM507.03 82.34L507.74 80.62L503.31 78.78L502.6 80.5zM499.65 79.64 a3.3 3.3 0 1 0 6.6 0 a3.3 3.3 0 1 0 -6.6 0zM514.44 70.59L515.76 69.28L512.18 65.7L510.86 67.02zM508.22 66.36 a3.3 3.3 0 1 0 6.6 0 a3.3 3.3 0 1 0 -6.6 0zM525.78 62.58L527.51 61.87L523.39 51.93L521.67 52.65zM519.23 52.29 a3.3 3.3 0 1 0 6.6 0 a3.3 3.3 0 1 0 -6.6 0zM539.33 59.51L541.2 59.51L541.2 52.66L539.33 52.66zM536.96 52.66 a3.3 3.3 0 1 0 6.6 0 a3.3 3.3 0 1 0 -6.6 0zM553.02 61.87L554.74 62.58L558.24 54.13L556.52 53.41zM554.08 53.77 a3.3 3.3 0 1 0 6.6 0 a3.3 3.3 0 1 0 -6.6 0zM564.77 69.28L566.08 70.59L572.33 64.35L571.01 63.03zM568.37 63.69 a3.3 3.3 0 1 0 6.6 0 a3.3 3.3 0 1 0 -6.6 0zM572.78 80.62L573.5 82.34L581.96 78.84L581.25 77.11zM578.3 77.97 a3.3 3.3 0 1 0 6.6 0 a3.3 3.3 0 1 0 -6.6 0zM504.66 95.1 a35.6 35.6 0 1 0 71.2 0 a35.6 35.6 0 1 0 -71.2 0z" fill="#488fdb"></path><path d="M516.22 68.84 A34.5968 34.5968 0 0 1 575 87.33M575 87.33 A71.1936 71.1936 0 0 0 516.22 68.84" fill="#2672c3" fill-rule="nonzero"></path><path d="M539.88 104.37 a7.12 7.12 0 1 0 14.24 0 a7.12 7.12 0 1 0 -14.24 0zM516.26 117.44 a7.12 7.12 0 1 0 14.24 0 a7.12 7.12 0 1 0 -14.24 0zM504.77 93.73 a5.7 5.7 0 1 0 11.4 0 a5.7 5.7 0 1 0 -11.4 0zM523.67 80.14 a7.12 7.12 0 1 0 14.24 0 a7.12 7.12 0 1 0 -14.24 0zM541.24 65.67 a5.34 5.34 0 1 0 10.68 0 a5.34 5.34 0 1 0 -10.68 0zM563.24 90.33 a6.05 6.05 0 1 0 12.1 0 a6.05 6.05 0 1 0 -12.1 0zM559.36 69.47 a2.14 2.14 0 1 0 4.28 0 a2.14 2.14 0 1 0 -4.28 0zM510.17 77.08 a2.14 2.14 0 1 0 4.28 0 a2.14 2.14 0 1 0 -4.28 0zM567.85 105.79 a2.14 2.14 0 1 0 4.28 0 a2.14 2.14 0 1 0 -4.28 0zM549.55 79.63 a2.49 2.49 0 1 0 4.98 0 a2.49 2.49 0 1 0 -4.98 0z" fill="#2672c3" fill-rule="nonzero"></path><path d="M99.55 479.73L99.55 481.59L113.61 481.59L113.61 479.73zM110.31 480.66 a3.3 3.3 0 1 0 6.6 0 a3.3 3.3 0 1 0 -6.6 0zM97.2 493.42L96.49 495.14L101.98 497.41L102.69 495.69zM99.03 496.55 a3.3 3.3 0 1 0 6.6 0 a3.3 3.3 0 1 0 -6.6 0zM89.79 505.16L88.47 506.48L97.25 515.26L98.57 513.95zM94.61 514.61 a3.3 3.3 0 1 0 6.6 0 a3.3 3.3 0 1 0 -6.6 0zM78.45 513.18L76.73 513.89L80.51 523.02L82.23 522.31zM78.07 522.66 a3.3 3.3 0 1 0 6.6 0 a3.3 3.3 0 1 0 -6.6 0zM64.9 516.25L63.04 516.25L63.04 529.38L64.9 529.38zM60.67 529.38 a3.3 3.3 0 1 0 6.6 0 a3.3 3.3 0 1 0 -6.6 0zM51.21 513.89L49.49 513.18L43.39 527.92L45.11 528.63zM40.95 528.27 a3.3 3.3 0 1 0 6.6 0 a3.3 3.3 0 1 0 -6.6 0zM39.47 506.48L38.15 505.16L26.36 516.95L27.68 518.27zM23.72 517.61 a3.3 3.3 0 1 0 6.6 0 a3.3 3.3 0 1 0 -6.6 0zM31.45 495.14L30.74 493.42L17.83 498.76L18.54 500.49zM14.89 499.62 a3.3 3.3 0 1 0 6.6 0 a3.3 3.3 0 1 0 -6.6 0zM28.38 481.59L28.38 479.73L17.82 479.73L17.82 481.59zM14.52 480.66 a3.3 3.3 0 1 0 6.6 0 a3.3 3.3 0 1 0 -6.6 0zM30.74 467.9L31.45 466.18L15.25 459.47L14.54 461.2zM11.6 460.34 a3.3 3.3 0 1 0 6.6 0 a3.3 3.3 0 1 0 -6.6 0zM38.15 456.16L39.47 454.84L35.68 451.06L34.36 452.37zM31.72 451.72 a3.3 3.3 0 1 0 6.6 0 a3.3 3.3 0 1 0 -6.6 0zM49.49 448.14L51.21 447.43L48.71 441.4L46.99 442.11zM44.55 441.75 a3.3 3.3 0 1 0 6.6 0 a3.3 3.3 0 1 0 -6.6 0zM63.04 445.08L64.9 445.08L64.9 437.91L63.04 437.91zM60.67 437.91 a3.3 3.3 0 1 0 6.6 0 a3.3 3.3 0 1 0 -6.6 0zM76.73 447.43L78.45 448.14L80.76 442.56L79.04 441.85zM76.6 442.2 a3.3 3.3 0 1 0 6.6 0 a3.3 3.3 0 1 0 -6.6 0zM88.47 454.84L89.79 456.16L96.9 449.05L95.58 447.73zM92.94 448.39 a3.3 3.3 0 1 0 6.6 0 a3.3 3.3 0 1 0 -6.6 0zM96.49 466.18L97.2 467.9L113.05 461.34L112.33 459.62zM109.39 460.48 a3.3 3.3 0 1 0 6.6 0 a3.3 3.3 0 1 0 -6.6 0zM28.37 480.66 a35.6 35.6 0 1 0 71.2 0 a35.6 35.6 0 1 0 -71.2 0z" fill="#488fdb"></path><path d="M37.42 504.37 A34.5968 34.5968 0 0 1 56.63 445.83M56.63 445.83 A71.1936 71.1936 0 0 0 37.42 504.37" fill="#2672c3" fill-rule="nonzero"></path><path d="M40.54 489.7 a7.12 7.12 0 1 0 14.24 0 a7.12 7.12 0 1 0 -14.24 0zM30.38 491.24 a1.42 1.42 0 1 0 2.84 0 a1.42 1.42 0 1 0 -2.84 0zM67.57 473.2 a7.12 7.12 0 1 0 14.24 0 a7.12 7.12 0 1 0 -14.24 0zM39.24 457.79 a5.7 5.7 0 1 0 11.4 0 a5.7 5.7 0 1 0 -11.4 0zM59.02 480.49 a1.42 1.42 0 1 0 2.84 0 a1.42 1.42 0 1 0 -2.84 0zM92.32 466.9 a2.14 2.14 0 1 0 4.28 0 a2.14 2.14 0 1 0 -4.28 0zM44.08 505.42 a1.42 1.42 0 1 0 2.84 0 a1.42 1.42 0 1 0 -2.84 0zM57.82 460.25 a3.2 3.2 0 1 0 6.4 0 a3.2 3.2 0 1 0 -6.4 0zM32.1 478.83 a2.49 2.49 0 1 0 4.98 0 a2.49 2.49 0 1 0 -4.98 0zM87.79 482.04 a5.7 5.7 0 1 0 11.4 0 a5.7 5.7 0 1 0 -11.4 0z" fill="#2672c3" fill-rule="nonzero"></path><path d="M890.78 240.3L890.78 242.17L898.17 242.17L898.17 240.3zM894.87 241.23 a3.3 3.3 0 1 0 6.6 0 a3.3 3.3 0 1 0 -6.6 0zM888.42 253.99L887.71 255.71L899.76 260.7L900.47 258.98zM896.81 259.84 a3.3 3.3 0 1 0 6.6 0 a3.3 3.3 0 1 0 -6.6 0zM881.01 265.74L879.69 267.05L887.91 275.27L889.23 273.95zM885.27 274.61 a3.3 3.3 0 1 0 6.6 0 a3.3 3.3 0 1 0 -6.6 0zM869.67 273.75L867.95 274.47L873.86 288.74L875.58 288.03zM871.42 288.38 a3.3 3.3 0 1 0 6.6 0 a3.3 3.3 0 1 0 -6.6 0zM856.12 276.82L854.26 276.82L854.26 289.18L856.12 289.18zM851.89 289.18 a3.3 3.3 0 1 0 6.6 0 a3.3 3.3 0 1 0 -6.6 0zM842.43 274.47L840.71 273.75L837.54 281.42L839.26 282.13zM835.1 281.78 a3.3 3.3 0 1 0 6.6 0 a3.3 3.3 0 1 0 -6.6 0zM830.69 267.05L829.37 265.74L825.02 270.09L826.34 271.4zM822.38 270.74 a3.3 3.3 0 1 0 6.6 0 a3.3 3.3 0 1 0 -6.6 0zM822.67 255.71L821.96 253.99L807.83 259.84L808.55 261.56zM804.89 260.7 a3.3 3.3 0 1 0 6.6 0 a3.3 3.3 0 1 0 -6.6 0zM819.61 242.17L819.61 240.3L808.15 240.3L808.15 242.17zM804.85 241.23 a3.3 3.3 0 1 0 6.6 0 a3.3 3.3 0 1 0 -6.6 0zM821.96 228.48L822.67 226.75L815.36 223.72L814.64 225.45zM811.7 224.58 a3.3 3.3 0 1 0 6.6 0 a3.3 3.3 0 1 0 -6.6 0zM829.37 216.73L830.69 215.41L820.01 204.74L818.69 206.05zM816.05 205.39 a3.3 3.3 0 1 0 6.6 0 a3.3 3.3 0 1 0 -6.6 0zM840.71 208.71L842.43 208L838.9 199.47L837.18 200.19zM834.74 199.83 a3.3 3.3 0 1 0 6.6 0 a3.3 3.3 0 1 0 -6.6 0zM854.26 205.65L856.12 205.65L856.12 195.3L854.26 195.3zM851.89 195.3 a3.3 3.3 0 1 0 6.6 0 a3.3 3.3 0 1 0 -6.6 0zM867.95 208L869.67 208.71L873.75 198.86L872.03 198.14zM869.59 198.5 a3.3 3.3 0 1 0 6.6 0 a3.3 3.3 0 1 0 -6.6 0zM879.69 215.41L881.01 216.73L885.84 211.9L884.52 210.58zM881.88 211.24 a3.3 3.3 0 1 0 6.6 0 a3.3 3.3 0 1 0 -6.6 0zM887.71 226.75L888.42 228.48L897.56 224.69L896.85 222.97zM893.9 223.83 a3.3 3.3 0 1 0 6.6 0 a3.3 3.3 0 1 0 -6.6 0zM819.59 241.23 a35.6 35.6 0 1 0 71.2 0 a35.6 35.6 0 1 0 -71.2 0z" fill="#488fdb"></path><path d="M888.15 254.67 A34.5968 34.5968 0 0 1 827.12 263.12M827.12 263.12 A71.1936 71.1936 0 0 0 888.15 254.67" fill="#2672c3" fill-rule="nonzero"></path><path d="M870.44 247.64 a7.12 7.12 0 1 0 14.24 0 a7.12 7.12 0 1 0 -14.24 0zM849.6 265.73 a7.12 7.12 0 1 0 14.24 0 a7.12 7.12 0 1 0 -14.24 0zM833.93 228.31 a7.12 7.12 0 1 0 14.24 0 a7.12 7.12 0 1 0 -14.24 0zM868.05 224.88 a7.12 7.12 0 1 0 14.24 0 a7.12 7.12 0 1 0 -14.24 0zM824.76 252.1 a7.12 7.12 0 1 0 14.24 0 a7.12 7.12 0 1 0 -14.24 0zM851.64 215.31 a5.7 5.7 0 1 0 11.4 0 a5.7 5.7 0 1 0 -11.4 0zM838.96 268.39 a1.78 1.78 0 1 0 3.56 0 a1.78 1.78 0 1 0 -3.56 0zM873.93 265.62 a2.85 2.85 0 1 0 5.7 0 a2.85 2.85 0 1 0 -5.7 0zM849.22 243.59 a7.12 7.12 0 1 0 14.24 0 a7.12 7.12 0 1 0 -14.24 0zM820.09 236.71 a1.42 1.42 0 1 0 2.84 0 a1.42 1.42 0 1 0 -2.84 0z" fill="#2672c3" fill-rule="nonzero"></path><path d="M175.07 187.85L175.07 191.11L194.67 191.11L194.67 187.85zM188.89 189.48 a5.78 5.78 0 1 0 11.56 0 a5.78 5.78 0 1 0 -11.56 0zM170.96 211.81L169.71 214.82L191.21 223.72L192.46 220.71zM186.05 222.22 a5.78 5.78 0 1 0 11.56 0 a5.78 5.78 0 1 0 -11.56 0zM157.99 232.36L155.68 234.67L165.46 244.45L167.77 242.14zM160.83 243.29 a5.78 5.78 0 1 0 11.56 0 a5.78 5.78 0 1 0 -11.56 0zM138.14 246.39L135.13 247.64L143.51 267.88L146.52 266.63zM139.24 267.26 a5.78 5.78 0 1 0 11.56 0 a5.78 5.78 0 1 0 -11.56 0zM114.43 251.75L111.17 251.75L111.17 267.65L114.43 267.65zM107.02 267.65 a5.78 5.78 0 1 0 11.56 0 a5.78 5.78 0 1 0 -11.56 0zM90.48 247.64L87.46 246.39L79.42 265.82L82.43 267.07zM75.14 266.44 a5.78 5.78 0 1 0 11.56 0 a5.78 5.78 0 1 0 -11.56 0zM69.92 234.67L67.61 232.36L47.59 252.39L49.9 254.69zM42.96 253.54 a5.78 5.78 0 1 0 11.56 0 a5.78 5.78 0 1 0 -11.56 0zM55.89 214.82L54.64 211.81L47.3 214.85L48.55 217.86zM42.14 216.35 a5.78 5.78 0 1 0 11.56 0 a5.78 5.78 0 1 0 -11.56 0zM50.53 191.11L50.53 187.85L37.64 187.85L37.64 191.11zM31.86 189.48 a5.78 5.78 0 1 0 11.56 0 a5.78 5.78 0 1 0 -11.56 0zM54.64 167.16L55.89 164.14L48.48 161.08L47.23 164.09zM42.08 162.58 a5.78 5.78 0 1 0 11.56 0 a5.78 5.78 0 1 0 -11.56 0zM67.61 146.6L69.92 144.3L52.67 127.05L50.37 129.35zM45.74 128.2 a5.78 5.78 0 1 0 11.56 0 a5.78 5.78 0 1 0 -11.56 0zM87.46 132.57L90.48 131.32L86.01 120.55L83 121.8zM78.73 121.18 a5.78 5.78 0 1 0 11.56 0 a5.78 5.78 0 1 0 -11.56 0zM111.17 127.21L114.43 127.21L114.43 118.83L111.17 118.83zM107.02 118.83 a5.78 5.78 0 1 0 11.56 0 a5.78 5.78 0 1 0 -11.56 0zM135.13 131.32L138.14 132.57L145.54 114.71L142.52 113.47zM138.25 114.09 a5.78 5.78 0 1 0 11.56 0 a5.78 5.78 0 1 0 -11.56 0zM155.68 144.3L157.99 146.6L167.81 136.78L165.5 134.47zM160.88 135.63 a5.78 5.78 0 1 0 11.56 0 a5.78 5.78 0 1 0 -11.56 0zM169.71 164.14L170.96 167.16L190.08 159.24L188.83 156.22zM183.68 157.73 a5.78 5.78 0 1 0 11.56 0 a5.78 5.78 0 1 0 -11.56 0zM50.51 189.48 a62.29 62.29 0 1 0 124.58 0 a62.29 62.29 0 1 0 -124.58 0z" fill="#488fdb"></path><path d="M59.07 221 A61.294399999999996 61.294399999999996 0 0 1 112.25 127.19M112.25 127.19 A124.58879999999999 124.58879999999999 0 0 0 59.07 221" fill="#2672c3" fill-rule="nonzero"></path><path d="M77.54 231.95 a12.46 12.46 0 1 0 24.92 0 a12.46 12.46 0 1 0 -24.92 0zM90.83 184.6 a12.46 12.46 0 1 0 24.92 0 a12.46 12.46 0 1 0 -24.92 0zM61.32 199.5 a9.97 9.97 0 1 0 19.94 0 a9.97 9.97 0 1 0 -19.94 0zM57.47 173.29 a4.98 4.98 0 1 0 9.96 0 a4.98 4.98 0 1 0 -9.96 0zM135.8 228.4 a10.59 10.59 0 1 0 21.18 0 a10.59 10.59 0 1 0 -21.18 0zM147.03 185.8 a12.46 12.46 0 1 0 24.92 0 a12.46 12.46 0 1 0 -24.92 0zM160.96 158.18 a2.49 2.49 0 1 0 4.98 0 a2.49 2.49 0 1 0 -4.98 0zM113.41 134.57 a6.85 6.85 0 1 0 13.7 0 a6.85 6.85 0 1 0 -13.7 0zM76.46 145.04 a11.21 11.21 0 1 0 22.42 0 a11.21 11.21 0 1 0 -22.42 0zM117.99 163.07 a2.49 2.49 0 1 0 4.98 0 a2.49 2.49 0 1 0 -4.98 0z" fill="#2672c3" fill-rule="nonzero"></path><path d="M1132.79 347.58L1132.79 349.45L1145.34 349.45L1145.34 347.58zM1142.04 348.51 a3.3 3.3 0 1 0 6.6 0 a3.3 3.3 0 1 0 -6.6 0zM1130.44 361.27L1129.73 362.99L1141.46 367.85L1142.17 366.13zM1138.52 366.99 a3.3 3.3 0 1 0 6.6 0 a3.3 3.3 0 1 0 -6.6 0zM1123.03 373.02L1121.71 374.34L1131.85 384.48L1133.17 383.16zM1129.21 383.82 a3.3 3.3 0 1 0 6.6 0 a3.3 3.3 0 1 0 -6.6 0zM1111.69 381.03L1109.97 381.75L1114.78 393.37L1116.5 392.66zM1112.34 393.01 a3.3 3.3 0 1 0 6.6 0 a3.3 3.3 0 1 0 -6.6 0zM1098.14 384.1L1096.28 384.1L1096.28 390.3L1098.14 390.3zM1093.91 390.3 a3.3 3.3 0 1 0 6.6 0 a3.3 3.3 0 1 0 -6.6 0zM1084.45 381.75L1082.73 381.03L1077.62 393.37L1079.34 394.08zM1075.18 393.72 a3.3 3.3 0 1 0 6.6 0 a3.3 3.3 0 1 0 -6.6 0zM1072.71 374.34L1071.39 373.02L1067.21 377.2L1068.53 378.51zM1064.57 377.86 a3.3 3.3 0 1 0 6.6 0 a3.3 3.3 0 1 0 -6.6 0zM1064.69 362.99L1063.98 361.27L1051.93 366.26L1052.64 367.98zM1048.99 367.12 a3.3 3.3 0 1 0 6.6 0 a3.3 3.3 0 1 0 -6.6 0zM1061.62 349.45L1061.62 347.58L1044.26 347.58L1044.26 349.45zM1040.96 348.51 a3.3 3.3 0 1 0 6.6 0 a3.3 3.3 0 1 0 -6.6 0zM1063.98 335.76L1064.69 334.04L1058.61 331.52L1057.9 333.24zM1054.95 332.38 a3.3 3.3 0 1 0 6.6 0 a3.3 3.3 0 1 0 -6.6 0zM1071.39 324.01L1072.71 322.69L1061.9 311.89L1060.58 313.21zM1057.94 312.55 a3.3 3.3 0 1 0 6.6 0 a3.3 3.3 0 1 0 -6.6 0zM1082.73 316L1084.45 315.28L1079.91 304.32L1078.19 305.04zM1075.75 304.68 a3.3 3.3 0 1 0 6.6 0 a3.3 3.3 0 1 0 -6.6 0zM1096.28 312.93L1098.14 312.93L1098.14 308.32L1096.28 308.32zM1093.91 308.32 a3.3 3.3 0 1 0 6.6 0 a3.3 3.3 0 1 0 -6.6 0zM1109.97 315.28L1111.69 316L1117.52 301.91L1115.8 301.19zM1113.36 301.55 a3.3 3.3 0 1 0 6.6 0 a3.3 3.3 0 1 0 -6.6 0zM1121.71 322.69L1123.03 324.01L1127.72 319.32L1126.41 318zM1123.77 318.66 a3.3 3.3 0 1 0 6.6 0 a3.3 3.3 0 1 0 -6.6 0zM1129.73 334.04L1130.44 335.76L1139.75 331.9L1139.04 330.18zM1136.1 331.04 a3.3 3.3 0 1 0 6.6 0 a3.3 3.3 0 1 0 -6.6 0zM1061.61 348.51 a35.6 35.6 0 1 0 71.2 0 a35.6 35.6 0 1 0 -71.2 0z" fill="#488fdb"></path><path d="M1074.64 320.99 A34.5968 34.5968 0 0 1 1132.32 342.66M1132.32 342.66 A71.1936 71.1936 0 0 0 1074.64 320.99" fill="#2672c3" fill-rule="nonzero"></path><path d="M1084.45 317.86 a3.2 3.2 0 1 0 6.4 0 a3.2 3.2 0 1 0 -6.4 0zM1090.51 337.93 a7.12 7.12 0 1 0 14.24 0 a7.12 7.12 0 1 0 -14.24 0zM1118.6 326.85 a2.85 2.85 0 1 0 5.7 0 a2.85 2.85 0 1 0 -5.7 0zM1106.8 368.91 a7.12 7.12 0 1 0 14.24 0 a7.12 7.12 0 1 0 -14.24 0zM1074.45 334.11 a4.63 4.63 0 1 0 9.26 0 a4.63 4.63 0 1 0 -9.26 0zM1114.55 337.98 a2.14 2.14 0 1 0 4.28 0 a2.14 2.14 0 1 0 -4.28 0zM1072.46 362.73 a7.12 7.12 0 1 0 14.24 0 a7.12 7.12 0 1 0 -14.24 0zM1102.53 356.68 a1.42 1.42 0 1 0 2.84 0 a1.42 1.42 0 1 0 -2.84 0zM1090.79 372.49 a1.42 1.42 0 1 0 2.84 0 a1.42 1.42 0 1 0 -2.84 0zM1064.55 336.68 a1.42 1.42 0 1 0 2.84 0 a1.42 1.42 0 1 0 -2.84 0z" fill="#2672c3" fill-rule="nonzero"></path><path d="M930.57 484.44L930.57 486.77L947.06 486.77L947.06 484.44zM942.93 485.6 a4.13 4.13 0 1 0 8.26 0 a4.13 4.13 0 1 0 -8.26 0zM927.62 501.55L926.73 503.7L934.82 507.05L935.71 504.89zM931.13 505.97 a4.13 4.13 0 1 0 8.26 0 a4.13 4.13 0 1 0 -8.26 0zM918.36 516.23L916.71 517.88L927.94 529.1L929.58 527.45zM924.63 528.27 a4.13 4.13 0 1 0 8.26 0 a4.13 4.13 0 1 0 -8.26 0zM904.18 526.25L902.03 527.14L905.73 536.08L907.89 535.19zM902.68 535.64 a4.13 4.13 0 1 0 8.26 0 a4.13 4.13 0 1 0 -8.26 0zM887.25 530.08L884.92 530.08L884.92 551.09L887.25 551.09zM881.95 551.09 a4.13 4.13 0 1 0 8.26 0 a4.13 4.13 0 1 0 -8.26 0zM870.14 527.14L867.99 526.25L860.32 544.75L862.47 545.65zM857.27 545.2 a4.13 4.13 0 1 0 8.26 0 a4.13 4.13 0 1 0 -8.26 0zM855.46 517.88L853.81 516.23L849.34 520.7L850.99 522.35zM846.03 521.52 a4.13 4.13 0 1 0 8.26 0 a4.13 4.13 0 1 0 -8.26 0zM845.44 503.7L844.54 501.55L835.69 505.21L836.58 507.36zM832.01 506.29 a4.13 4.13 0 1 0 8.26 0 a4.13 4.13 0 1 0 -8.26 0zM841.6 486.77L841.6 484.44L835.76 484.44L835.76 486.77zM831.63 485.6 a4.13 4.13 0 1 0 8.26 0 a4.13 4.13 0 1 0 -8.26 0zM844.54 469.65L845.44 467.5L839.98 465.24L839.08 467.39zM835.4 466.32 a4.13 4.13 0 1 0 8.26 0 a4.13 4.13 0 1 0 -8.26 0zM853.81 454.97L855.46 453.32L846.22 444.09L844.57 445.74zM841.27 444.91 a4.13 4.13 0 1 0 8.26 0 a4.13 4.13 0 1 0 -8.26 0zM867.99 444.95L870.14 444.06L867.83 438.48L865.67 439.37zM862.62 438.93 a4.13 4.13 0 1 0 8.26 0 a4.13 4.13 0 1 0 -8.26 0zM884.92 441.12L887.25 441.12L887.25 428.82L884.92 428.82zM881.95 428.82 a4.13 4.13 0 1 0 8.26 0 a4.13 4.13 0 1 0 -8.26 0zM902.03 444.06L904.18 444.95L907.76 436.31L905.61 435.42zM902.55 435.87 a4.13 4.13 0 1 0 8.26 0 a4.13 4.13 0 1 0 -8.26 0zM916.71 453.32L918.36 454.97L932.64 440.69L930.99 439.05zM927.68 439.87 a4.13 4.13 0 1 0 8.26 0 a4.13 4.13 0 1 0 -8.26 0zM926.73 467.5L927.62 469.65L940.37 464.38L939.47 462.22zM935.79 463.3 a4.13 4.13 0 1 0 8.26 0 a4.13 4.13 0 1 0 -8.26 0zM841.58 485.6 a44.5 44.5 0 1 0 89 0 a44.5 44.5 0 1 0 -89 0z" fill="#488fdb"></path><path d="M841.72 489 A43.496 43.496 0 0 1 905.24 445.44M905.24 445.44 A88.992 88.992 0 0 0 841.72 489" fill="#2672c3" fill-rule="nonzero"></path><path d="M884.78 509.34 a8.9 8.9 0 1 0 17.8 0 a8.9 8.9 0 1 0 -17.8 0zM846.83 488.14 a8.9 8.9 0 1 0 17.8 0 a8.9 8.9 0 1 0 -17.8 0zM881.66 485.3 a6.67 6.67 0 1 0 13.34 0 a6.67 6.67 0 1 0 -13.34 0zM867.22 523.13 a4 4 0 1 0 8 0 a4 4 0 1 0 -8 0zM908.03 520.56 a1.78 1.78 0 1 0 3.56 0 a1.78 1.78 0 1 0 -3.56 0zM903.51 490.56 a1.78 1.78 0 1 0 3.56 0 a1.78 1.78 0 1 0 -3.56 0zM893.58 456.39 a8.9 8.9 0 1 0 17.8 0 a8.9 8.9 0 1 0 -17.8 0zM859.34 453.71 a6.23 6.23 0 1 0 12.46 0 a6.23 6.23 0 1 0 -12.46 0zM911.46 474.51 a4.45 4.45 0 1 0 8.9 0 a4.45 4.45 0 1 0 -8.9 0zM877.65 463.83 a3.11 3.11 0 1 0 6.22 0 a3.11 3.11 0 1 0 -6.22 0z" fill="#2672c3" fill-rule="nonzero"></path><path d="M410.57 455.97L410.57 459.24L432.05 459.24L432.05 455.97zM426.27 457.6 a5.78 5.78 0 1 0 11.56 0 a5.78 5.78 0 1 0 -11.56 0zM406.45 479.93L405.2 482.94L423.4 490.48L424.64 487.46zM418.24 488.97 a5.78 5.78 0 1 0 11.56 0 a5.78 5.78 0 1 0 -11.56 0zM393.48 500.49L391.18 502.79L412.65 524.27L414.96 521.96zM408.02 523.11 a5.78 5.78 0 1 0 11.56 0 a5.78 5.78 0 1 0 -11.56 0zM373.63 514.51L370.62 515.76L379.14 536.32L382.15 535.07zM374.86 535.69 a5.78 5.78 0 1 0 11.56 0 a5.78 5.78 0 1 0 -11.56 0zM349.93 519.88L346.67 519.88L346.67 534.21L349.93 534.21zM342.52 534.21 a5.78 5.78 0 1 0 11.56 0 a5.78 5.78 0 1 0 -11.56 0zM325.97 515.76L322.96 514.51L318.03 526.41L321.04 527.66zM313.76 527.04 a5.78 5.78 0 1 0 11.56 0 a5.78 5.78 0 1 0 -11.56 0zM305.42 502.79L303.11 500.49L293.27 510.32L295.58 512.63zM288.65 511.47 a5.78 5.78 0 1 0 11.56 0 a5.78 5.78 0 1 0 -11.56 0zM291.39 482.94L290.14 479.93L279.75 484.23L280.99 487.25zM274.59 485.74 a5.78 5.78 0 1 0 11.56 0 a5.78 5.78 0 1 0 -11.56 0zM286.02 459.24L286.02 455.97L265.74 455.97L265.74 459.24zM259.96 457.6 a5.78 5.78 0 1 0 11.56 0 a5.78 5.78 0 1 0 -11.56 0zM290.14 435.28L291.39 432.27L270.47 423.6L269.22 426.62zM264.07 425.11 a5.78 5.78 0 1 0 11.56 0 a5.78 5.78 0 1 0 -11.56 0zM303.11 414.72L305.42 412.42L289.44 396.44L287.14 398.75zM282.51 397.6 a5.78 5.78 0 1 0 11.56 0 a5.78 5.78 0 1 0 -11.56 0zM322.96 400.7L325.97 399.45L319.03 382.7L316.02 383.95zM311.75 383.32 a5.78 5.78 0 1 0 11.56 0 a5.78 5.78 0 1 0 -11.56 0zM346.67 395.33L349.93 395.33L349.93 386.81L346.67 386.81zM342.52 386.81 a5.78 5.78 0 1 0 11.56 0 a5.78 5.78 0 1 0 -11.56 0zM370.62 399.45L373.63 400.7L378.12 389.87L375.11 388.62zM370.83 389.24 a5.78 5.78 0 1 0 11.56 0 a5.78 5.78 0 1 0 -11.56 0zM391.18 412.42L393.48 414.72L400.11 408.1L397.8 405.79zM393.18 406.95 a5.78 5.78 0 1 0 11.56 0 a5.78 5.78 0 1 0 -11.56 0zM405.2 432.27L406.45 435.28L425.14 427.54L423.89 424.53zM418.74 426.03 a5.78 5.78 0 1 0 11.56 0 a5.78 5.78 0 1 0 -11.56 0zM286.01 457.6 a62.29 62.29 0 1 0 124.58 0 a62.29 62.29 0 1 0 -124.58 0z" fill="#488fdb"></path><path d="M333.05 397.21 A61.294399999999996 61.294399999999996 0 0 1 408.26 474.47M408.26 474.47 A124.58879999999999 124.58879999999999 0 0 0 333.05 397.21" fill="#2672c3" fill-rule="nonzero"></path><path d="M334.41 444.74 a12.46 12.46 0 1 0 24.92 0 a12.46 12.46 0 1 0 -24.92 0zM289.49 451.5 a12.46 12.46 0 1 0 24.92 0 a12.46 12.46 0 1 0 -24.92 0zM353.72 479.5 a12.46 12.46 0 1 0 24.92 0 a12.46 12.46 0 1 0 -24.92 0zM393.31 446.86 a8.1 8.1 0 1 0 16.2 0 a8.1 8.1 0 1 0 -16.2 0zM324.8 505.89 a12.46 12.46 0 1 0 24.92 0 a12.46 12.46 0 1 0 -24.92 0zM308.36 419.72 a11.21 11.21 0 1 0 22.42 0 a11.21 11.21 0 1 0 -22.42 0zM367.31 424.42 a11.21 11.21 0 1 0 22.42 0 a11.21 11.21 0 1 0 -22.42 0zM331.07 478.63 a2.49 2.49 0 1 0 4.98 0 a2.49 2.49 0 1 0 -4.98 0zM367.32 509.31 a4.98 4.98 0 1 0 9.96 0 a4.98 4.98 0 1 0 -9.96 0zM347.91 416.59 a3.11 3.11 0 1 0 6.22 0 a3.11 3.11 0 1 0 -6.22 0z" fill="#2672c3" fill-rule="nonzero"></path></g><defs><mask id="SvgjsMask1009"><rect width="1440" height="560" fill="#ffffff"></rect></mask><linearGradient x1="15.28%" y1="-39.29%" x2="84.72%" y2="139.29%" gradientUnits="userSpaceOnUse" id="SvgjsLinearGradient1010"><stop stop-color="#0e2a47" offset="0"></stop><stop stop-color="#00459e" offset="1"></stop></linearGradient></defs></svg>