<svg xmlns="http://www.w3.org/2000/svg" version="1.1" xmlns:xlink="http://www.w3.org/1999/xlink" xmlns:svgjs="http://svgjs.dev/svgjs" width="1440" height="560" preserveAspectRatio="none" viewBox="0 0 1440 560"><g mask="url(&quot;#SvgjsMask1002&quot;)" fill="none"><rect width="1440" height="560" x="0" y="0" fill="url(&quot;#SvgjsLinearGradient1003&quot;)"></rect><path d="M1440 0L1234.68 0L1440 12.65z" fill="rgba(255, 255, 255, .1)"></path><path d="M1234.68 0L1440 12.65L1440 52.17L974.9100000000001 0z" fill="rgba(255, 255, 255, .075)"></path><path d="M974.9100000000001 0L1440 52.17L1440 259.49L897.1300000000001 0z" fill="rgba(255, 255, 255, .05)"></path><path d="M897.13 0L1440 259.49L1440 353.48L741.19 0z" fill="rgba(255, 255, 255, .025)"></path><path d="M0 560L604.42 560L0 288.74z" fill="rgba(0, 0, 0, .1)"></path><path d="M0 288.74L604.42 560L921.03 560L0 141.24z" fill="rgba(0, 0, 0, .075)"></path><path d="M0 141.24L921.03 560L1211.85 560L0 76.30000000000001z" fill="rgba(0, 0, 0, .05)"></path><path d="M0 76.30000000000001L1211.85 560L1342.83 560L0 22.12000000000001z" fill="rgba(0, 0, 0, .025)"></path></g><defs><mask id="SvgjsMask1002"><rect width="1440" height="560" fill="#ffffff"></rect></mask><linearGradient x1="15.28%" y1="-39.29%" x2="84.72%" y2="139.29%" gradientUnits="userSpaceOnUse" id="SvgjsLinearGradient1003"><stop stop-color="#0e2a47" offset="0"></stop><stop stop-color="#00459e" offset="1"></stop></linearGradient></defs></svg>