<svg xmlns="http://www.w3.org/2000/svg" version="1.1" xmlns:xlink="http://www.w3.org/1999/xlink" xmlns:svgjs="http://svgjs.dev/svgjs" width="1440" height="560" preserveAspectRatio="none" viewBox="0 0 1440 560"><g mask="url(&quot;#SvgjsMask1520&quot;)" fill="none"><rect width="1440" height="560" x="0" y="0" fill="#0e2a47"></rect><path d="M1055.77 460.11a5.6 5.6 0 1 0 8.71-7.04 5.6 5.6 0 1 0-8.71 7.04zM1068.21 450.05a5.6 5.6 0 1 0 8.71-7.05 5.6 5.6 0 1 0-8.71 7.05zM1080.65 439.98a5.6 5.6 0 1 0 8.71-7.04 5.6 5.6 0 1 0-8.71 7.04zM1093.09 429.92a5.6 5.6 0 1 0 8.71-7.04 5.6 5.6 0 1 0-8.71 7.04zM1040.96 492.67a5.6 5.6 0 1 0 8.7-7.04 5.6 5.6 0 1 0-8.7 7.04zM1053.4 482.61a5.6 5.6 0 1 0 8.7-7.04 5.6 5.6 0 1 0-8.7 7.04zM1065.84 472.55a5.6 5.6 0 1 0 8.7-7.04 5.6 5.6 0 1 0-8.7 7.04zM1078.27 462.49a5.6 5.6 0 1 0 8.71-7.05 5.6 5.6 0 1 0-8.71 7.05z" fill="#d3b714"></path><rect width="103.92" height="103.92" clip-path="url(&quot;#SvgjsClipPath1521&quot;)" x="941.57" y="158.54" fill="url(&quot;#SvgjsPattern1522&quot;)" transform="rotate(13.04, 993.53, 210.5)"></rect><path d="M235.4 498.13L223.31 493.91 224.77 481.19 212.68 476.98 214.14 464.25 202.04 460.04 203.5 447.31M242.18 493.88L230.09 489.66 231.55 476.94 219.45 472.72 220.91 460 208.82 455.78 210.28 443.06M248.96 489.62L236.86 485.41 238.32 472.68 226.23 468.47 227.69 455.75 215.6 451.53 217.05 438.81" stroke="#e73635" stroke-width="1.04"></path><rect width="309" height="309" clip-path="url(&quot;#SvgjsClipPath1523&quot;)" x="864.56" y="74.77" fill="url(&quot;#SvgjsPattern1524&quot;)" transform="rotate(331.36, 1019.06, 229.27)"></rect><rect width="231.84" height="231.84" clip-path="url(&quot;#SvgjsClipPath1525&quot;)" x="1155.28" y="346.45" fill="url(&quot;#SvgjsPattern1526&quot;)" transform="rotate(9.49, 1271.2, 462.37)"></rect><rect width="192" height="192" clip-path="url(&quot;#SvgjsClipPath1527&quot;)" x="15.36" y="395.91" fill="url(&quot;#SvgjsPattern1528&quot;)" transform="rotate(15.53, 111.36, 491.91)"></rect><path d="M231.53000000000003 581.38 L161.44 493.46L144.51215174122405 589.392848258776z" stroke="#037b0b" stroke-width="1.68" stroke-dasharray="4, 4"></path><circle r="46.666666666666664" cx="83.32" cy="12.83" fill="#037b0b"></circle><path d="M1421.04 115.61999999999999 L1427.1599999999999 271.92L1329.3678613942539 288.502138605746z" fill="#d3b714"></path><path d="M432.52 42.72L420.85 48 413.14 37.78 401.47 43.07 393.75 32.85 382.09 38.13 374.37 27.91M434.49 34.97L422.83 40.25 415.11 30.03 403.45 35.31 395.73 25.09 384.06 30.38 376.35 20.16" stroke="#d3b714" stroke-width="1" stroke-dasharray="4, 4"></path><path d="M564.17 494.9a5.6 5.6 0 1 0-8.54-7.24 5.6 5.6 0 1 0 8.54 7.24zM551.97 484.56a5.6 5.6 0 1 0-8.55-7.24 5.6 5.6 0 1 0 8.55 7.24zM539.76 474.21a5.6 5.6 0 1 0-8.54-7.24 5.6 5.6 0 1 0 8.54 7.24zM527.56 463.87a5.6 5.6 0 1 0-8.55-7.24 5.6 5.6 0 1 0 8.55 7.24zM598.93 503.39a5.6 5.6 0 1 0-8.54-7.25 5.6 5.6 0 1 0 8.54 7.25zM586.72 493.04a5.6 5.6 0 1 0-8.54-7.24 5.6 5.6 0 1 0 8.54 7.24zM574.52 482.7a5.6 5.6 0 1 0-8.55-7.24 5.6 5.6 0 1 0 8.55 7.24zM562.31 472.35a5.6 5.6 0 1 0-8.54-7.24 5.6 5.6 0 1 0 8.54 7.24z" fill="#d3b714"></path><rect width="104" height="104" clip-path="url(&quot;#SvgjsClipPath1529&quot;)" x="214.25" y="213.92" fill="url(&quot;#SvgjsPattern1530&quot;)" transform="rotate(309.35, 266.25, 265.92)"></rect></g><defs><mask id="SvgjsMask1520"><rect width="1440" height="560" fill="#ffffff"></rect></mask><pattern x="0" y="0" width="103.92" height="8.66" patternUnits="userSpaceOnUse" id="SvgjsPattern1522"><rect width="103.92" height="4.33" x="0" y="0" fill="#e73635"></rect><rect width="103.92" height="4.33" x="0" y="4.33" fill="rgba(0, 0, 0, 0)"></rect></pattern><clipPath id="SvgjsClipPath1521"><circle r="25.98" cx="993.53" cy="210.5"></circle></clipPath><pattern x="0" y="0" width="10.3" height="10.3" patternUnits="userSpaceOnUse" id="SvgjsPattern1524"><path d="M0 10.3L5.15 0L10.3 10.3" stroke="#d3b714" fill="none"></path></pattern><clipPath id="SvgjsClipPath1523"><circle r="77.25" cx="1019.06" cy="229.27"></circle></clipPath><pattern x="0" y="0" width="231.84" height="12.88" patternUnits="userSpaceOnUse" id="SvgjsPattern1526"><rect width="231.84" height="6.44" x="0" y="0" fill="#e73635"></rect><rect width="231.84" height="6.44" x="0" y="6.44" fill="rgba(0, 0, 0, 0)"></rect></pattern><clipPath id="SvgjsClipPath1525"><circle r="57.96" cx="1271.2" cy="462.37"></circle></clipPath><pattern x="0" y="0" width="6" height="6" patternUnits="userSpaceOnUse" id="SvgjsPattern1528"><path d="M0 6L3 0L6 6" stroke="#e73635" fill="none"></path></pattern><clipPath id="SvgjsClipPath1527"><circle r="48" cx="111.36" cy="491.91"></circle></clipPath><pattern x="0" y="0" width="10.4" height="10.4" patternUnits="userSpaceOnUse" id="SvgjsPattern1530"><path d="M0 10.4L5.2 0L10.4 10.4" stroke="#037b0b" fill="none"></path></pattern><clipPath id="SvgjsClipPath1529"><circle r="26" cx="266.25" cy="265.92"></circle></clipPath></defs></svg>