<svg xmlns="http://www.w3.org/2000/svg" version="1.1" xmlns:xlink="http://www.w3.org/1999/xlink" xmlns:svgjs="http://svgjs.dev/svgjs" width="1440" height="560" preserveAspectRatio="none" viewBox="0 0 1440 560"><g mask="url(&quot;#SvgjsMask1083&quot;)" fill="none"><rect width="1440" height="560" x="0" y="0" fill="#0e2a47"></rect><path d="M157.9701731768276 171.98876947410844L266.761053535705 160.55438719010894 255.32667125170548 51.76350683123154 146.5357908928281 63.197889115231035z" fill="rgba(28, 83, 142, 0.4)" class="triangle-float3"></path><path d="M1409.1735538604346 212.22503377313717L1434.3825238920706 129.77020813587242 1351.9276982548058 104.56123810423648 1326.7187282231698 187.01606374150123z" fill="rgba(28, 83, 142, 0.4)" class="triangle-float2"></path><path d="M96.66469701362395 241.6812529721987L-2.3818012159529474 195.38014260952252 4.285203321350721 290.72274942948627z" fill="rgba(28, 83, 142, 0.4)" class="triangle-float3"></path><path d="M530.641,379.675C561.357,377.946,581.616,350.344,595.281,322.78C607.2,298.739,608.259,271.588,596.081,247.678C582.547,221.107,560.459,196.07,530.641,195.87C500.583,195.669,478.794,220.817,463.666,246.792C448.41,272.988,438.389,303.773,452.033,330.844C466.913,360.367,497.632,381.533,530.641,379.675" fill="rgba(28, 83, 142, 0.4)" class="triangle-float3"></path><path d="M546.0873931104592 196.8488594063119L444.8082897506871 220.2309827978014 468.1904131421766 321.5100861575735 569.4695165019486 298.127962766084z" fill="rgba(28, 83, 142, 0.4)" class="triangle-float2"></path><path d="M87.871,281.934C110.838,281.18,130.455,267.988,142.937,248.695C156.832,227.219,166.818,200.829,155.031,178.128C142.526,154.043,115.008,142.426,87.871,142.64C61.124,142.851,35.616,155.849,22.519,179.171C9.671,202.051,12.081,230.387,26.163,252.53C39.268,273.137,63.463,282.736,87.871,281.934" fill="rgba(28, 83, 142, 0.4)" class="triangle-float2"></path><path d="M387.6 151.92 a145.48 145.48 0 1 0 290.96 0 a145.48 145.48 0 1 0 -290.96 0z" fill="rgba(28, 83, 142, 0.4)" class="triangle-float3"></path><path d="M1197.968,393.928C1214.019,394.017,1230.55,389.677,1239.244,376.184C1248.625,361.625,1249.063,342.851,1240.627,327.724C1231.974,312.209,1215.733,302.191,1197.968,302.175C1180.176,302.159,1163.756,312.062,1155.176,327.648C1146.882,342.715,1148.146,361.283,1157.475,375.732C1166.077,389.056,1182.108,393.84,1197.968,393.928" fill="rgba(28, 83, 142, 0.4)" class="triangle-float1"></path><path d="M336.39044545243684 185.87267698604262L317.4926859563594 292.45313505014644 406.958877281981 261.6474549208785z" fill="rgba(28, 83, 142, 0.4)" class="triangle-float3"></path><path d="M516.349,228.728C554.211,225.95,584.906,199.958,602.261,166.193C618.103,135.371,614.985,99.651,598.305,69.274C580.886,37.551,552.523,10.838,516.349,9.736C478.488,8.583,445.888,32.231,425.265,64.004C402.252,99.458,384.964,143.648,405.417,180.638C426.32,218.44,473.269,231.889,516.349,228.728" fill="rgba(28, 83, 142, 0.4)" class="triangle-float1"></path><path d="M824.2225792366125 136.6001123959515L887.9973567239202 79.17704482218475 830.5742891501535 15.402267334877024 766.7995116628458 72.82533490864378z" fill="rgba(28, 83, 142, 0.4)" class="triangle-float1"></path><path d="M1119.847,414.07C1135.782,413.705,1149.158,403.163,1156.912,389.237C1164.44,375.717,1165.195,359.519,1157.786,345.934C1150.046,331.743,1136.004,320.771,1119.847,321.278C1104.355,321.764,1093.551,334.758,1085.82,348.192C1078.114,361.583,1072.631,377.277,1079.721,391.004C1087.309,405.695,1103.316,414.448,1119.847,414.07" fill="rgba(28, 83, 142, 0.4)" class="triangle-float2"></path><path d="M494.9205631508571 435.44204681279103L420.24346684168 349.53587447571306 334.337294504602 424.21297078489016 409.01439081377913 510.11914312196814z" fill="rgba(28, 83, 142, 0.4)" class="triangle-float1"></path><path d="M1124.29 404.52 a163.33 163.33 0 1 0 326.66 0 a163.33 163.33 0 1 0 -326.66 0z" fill="rgba(28, 83, 142, 0.4)" class="triangle-float2"></path><path d="M163.916,77.906C182.437,78.408,203.832,78.404,213.459,62.574C223.306,46.383,215.205,26.223,205.094,10.196C195.795,-4.543,181.334,-16.499,163.916,-15.954C147.234,-15.432,135.494,-1.71,126.973,12.641C118.206,27.407,110.356,45.065,118.815,60.009C127.354,75.095,146.587,77.436,163.916,77.906" fill="rgba(28, 83, 142, 0.4)" class="triangle-float3"></path><path d="M169.39290903528658 539.820751970177L293.0392618325491 456.4202339319199 209.63874379429205 332.77388113465736 85.99239099702952 416.17439917291443z" fill="rgba(28, 83, 142, 0.4)" class="triangle-float3"></path><path d="M812.095100205305 443.46711841050114L901.2613468498422 354.4706646681939 795.4010274901152 324.1157065568384z" fill="rgba(28, 83, 142, 0.4)" class="triangle-float3"></path><path d="M452.32 429.19 a123.47 123.47 0 1 0 246.94 0 a123.47 123.47 0 1 0 -246.94 0z" fill="rgba(28, 83, 142, 0.4)" class="triangle-float2"></path><path d="M766.1596531934658 316.6206145584375L754.655921715801 222.9302401899394 619.8722259018863 287.03102459068566z" fill="rgba(28, 83, 142, 0.4)" class="triangle-float3"></path><path d="M1303.4360977673407 502.6724013526227L1346.2055034238908 401.91399585176316 1173.6831923443265 388.13909011736774z" fill="rgba(28, 83, 142, 0.4)" class="triangle-float3"></path></g><defs><mask id="SvgjsMask1083"><rect width="1440" height="560" fill="#ffffff"></rect></mask><style>
                @keyframes float1 {
                    0%{transform: translate(0, 0)}
                    50%{transform: translate(-10px, 0)}
                    100%{transform: translate(0, 0)}
                }

                .triangle-float1 {
                    animation: float1 5s infinite;
                }

                @keyframes float2 {
                    0%{transform: translate(0, 0)}
                    50%{transform: translate(-5px, -5px)}
                    100%{transform: translate(0, 0)}
                }

                .triangle-float2 {
                    animation: float2 4s infinite;
                }

                @keyframes float3 {
                    0%{transform: translate(0, 0)}
                    50%{transform: translate(0, -10px)}
                    100%{transform: translate(0, 0)}
                }

                .triangle-float3 {
                    animation: float3 6s infinite;
                }
            </style></defs></svg>