<svg xmlns="http://www.w3.org/2000/svg" version="1.1" xmlns:xlink="http://www.w3.org/1999/xlink" xmlns:svgjs="http://svgjs.dev/svgjs" width="1440" height="560" preserveAspectRatio="none" viewBox="0 0 1440 560"><g mask="url(&quot;#SvgjsMask1004&quot;)" fill="none"><rect width="1440" height="560" x="0" y="0" fill="#0e2a47"></rect><path d="M727.27 578.61C846.06 526.19 796.07 152.74 1022.97 151.65 1249.86 150.56 1455.31 382.59 1614.36 386.85" stroke="rgba(51,121,194,0.58)" stroke-width="2"></path><path d="M660.26 579.05C768.35 561.49 717.35 310.77 996.76 298.61 1276.17 286.45 1494.14 99.16 1669.76 97.01" stroke="rgba(51,121,194,0.58)" stroke-width="2"></path><path d="M734.28 612.01C864.67 604.11 934.79 376.48 1193.31 362.35 1451.84 348.22 1524.19 139.03 1652.35 132.75" stroke="rgba(51,121,194,0.58)" stroke-width="2"></path><path d="M290.22 644.53C453.83 641.45 577.35 436.58 908.11 428.56 1238.87 420.54 1358.72 176.05 1526 170.96" stroke="rgba(51,121,194,0.58)" stroke-width="2"></path><path d="M137.92 636.54C327.21 631.43 473.56 360.88 841.5 356.06 1209.44 351.24 1365.17 205.71 1545.08 204.86" stroke="rgba(51,121,194,0.58)" stroke-width="2"></path></g><defs><mask id="SvgjsMask1004"><rect width="1440" height="560" fill="#ffffff"></rect></mask></defs></svg>